# xmcd
#
# Track frame offsets:
#	183
#	21923
#	30863
#	52883
#	69110
#	92648
#	118268
#	131580
#	174723
#	193670
#	204163
#	219043
#	234140
#
# Disc length: 3403 seconds
#
# Revision: 0
# Processed by: cddbd v1.4PL0 Copyright (c) Steve Scherf et al.
# Submitted via: dBpowerAMP V4.0
#
DISCID=9e0d490d
DTITLE=Neil Diamond - Song sung blue
DYEAR=1900
DGENRE=
TTITLE0=Cherry Cherry
TTITLE1=Porcupine Pie
TTITLE2=Sung sung blue
TTITLE3=Shilo
TTITLE4=Canta libre
TTITLE5=Morningside
TTITLE6=Cracklin Rosie
TTITLE7=Soolaimon Brother Love´s travelling Savation Show
TTITLE8=Sweet Caroline
TTITLE9=You´re so sweet horsefeflies keep hangin round your face
TTITLE10=Solitary man
TTITLE11=Done too soon
TTITLE12=And the grass won´t pay no mind
EXTD=
EXTT0=
EXTT1=
EXTT2=
EXTT3=
EXTT4=
EXTT5=
EXTT6=
EXTT7=
EXTT8=
EXTT9=
EXTT10=
EXTT11=
EXTT12=
PLAYORDER=
